<?xml version="1.0" encoding="UTF-8"?>
<svg id="Layer_2" data-name="Layer 2" xmlns="http://www.w3.org/2000/svg" xmlns:xlink="http://www.w3.org/1999/xlink" viewBox="0 0 394.38 150.5">
  <defs>
    <style>
      .cls-1 {
        fill: #fff;
      }

      .cls-2 {
        isolation: isolate;
      }

      .cls-3 {
        fill: #059967;
      }

      .cls-4 {
        fill: #3d59a8;
      }

      .cls-5 {
        fill: #03a26a;
      }

      .cls-6 {
        fill: url(#linear-gradient);
      }
    </style>
    <linearGradient id="linear-gradient" x1="188.31" y1="-342.62" x2="186.59" y2="-436.91" gradientTransform="translate(0 455.86)" gradientUnits="userSpaceOnUse">
      <stop offset="0" stop-color="#293684"/>
      <stop offset="1" stop-color="#3e5caa"/>
    </linearGradient>
  </defs>
  <g id="Layer_1-2" data-name="Layer 1">
    <path class="cls-6" d="M304.02,23.26c6.26-13.53,28.96-13.64,39.7-6.26,1.12,.78,2.52,1.34,3.47,2.4,7.66,4.86,12.75,15.88,13.92,24.66,6.54,.06,14.82-2.12,12.92,7.94-.89,4.75-8.56,3.24-12.3,3.35v45.07c.06,6.32,1.23,10.57-6.77,10.18-3.08-.17-5.59-.17-5.76-4.14-.17-5.82-.06-11.69-.06-17.5V55.36c-3.97-.17-8.39-.06-12.41-.06v46.24c0,3.91,.95,6.71-2.63,9-3.86,.11-10.18,1.29-10.01-4.47,.17-5.76,.28-10.57-2.74-15.77-4.08-7.49-9.23-13.2-18.23-13.53-4.75-.22-10.96,6.43-7.21,9.51,.62-.11,1.01-.34,1.57-.45,4.25-.89,7.72,1.23,8.33,5.7,.67,4.86-3.41,8.39-7.94,8.83-3.24,.34-7.6-.78-9.95-3.08-12.02-11.8-3.75-30.42,12.19-31.93,6.82-.67,13.64,1.45,18.9,5.87,2.12,1.79,3.41,3.35,5.09,5.54l.06-21.3c-9.51-.11-19.23,0-28.74,0h-59.44c-.06,7.94-.06,15.82-.06,23.76,3.63-2.68,23.04-16.16,27.06-15.49,.78,.11,1.51,.5,2.18,.95,1.34,.84,8.5,6.43,9.17,7.38,.28,.39,.39,.84,.5,1.34-.5,1.62-2.18,4.03-2.96,5.65-2.57,5.26-3.3,10.18-3.19,15.88,.06,1.51,.17,3.08,.39,4.59,.45,2.8,2.85,8.78-.39,9.95-2.52,.95-8.95,3.13-10.29-.56-3.69-10.06-2.91-20.24,.56-30.19-6.77,3.02-12.8,7.49-18.4,12.3-1.79,1.51-3.41,3.69-5.37,4.92-.84,.5-1.45,.5-2.35,.17-1.29-.5-8.67-4.59-9.23-5.65-.73-1.45-.34-31.14-.34-34.95-3.86-.17-7.88-.06-11.74-.06v34.28c0,5.26,.06,10.96-.06,16.27,0,1.17-.34,2.46-.95,3.47-.95,1.62-8.39,1.68-9.51,.95-2.57-1.68-4.98-4.53-7.72-6.6-5.31-4.14-11.24-7.49-17.56-9.9-2.12-.84-12.19-3.47-12.92-4.25-1.01-1.01-4.08-9.9-4.03-11.35,.06-1.06,.95-2.12,1.73-2.8,1.79-1.57,4.19-2.68,6.26-3.86,10.18-5.7,20.91-10.68,32.15-13.92l.06-2.24c-8.95-.11-18.06,.06-27.06,0-5.09,.22-10.79-.45-15.77,.39-3.13,.5-7.05,3.41-9.45,5.65-8.56,7.83-12.97,26.45-3.58,35.17,1.23,1.12,4.36,2.46,5.93,2.18,6.37-1.29,9.28-1.85,9.95,6.32,.45,5.48-7.49,6.09-11.8,5.82-5.87-.45-11.29-3.13-15.15-7.6-5.42-6.21-7.27-15.38-6.71-23.43,.62-9.11,4.42-17.78,10.79-24.38-7.1-.06-14.26-.06-21.36,0v36.62c0,4.86,.11,9.9,0,14.71-.11,4.25-4.64,4.03-7.72,4.03-2.46,0-4.75-1.12-4.86-3.91-.22-5.7-.11-11.41-.11-17.05l.06-34.39c-4.08-.06-8.22-.06-12.3,0v45.57c0,6.04,1.23,10.06-6.88,9.79-1.62-.06-3.35,0-4.64-1.4-4.14-5.54-8.5-9.79-15.38-11.85-5.37,5.93-11.85,9-19.91,9.45-9.06,.45-17.89-2.8-24.6-8.89-5.98-5.42-9.95-13.03-11.74-20.86-.39-2.18-1.85-6.37-.11-8.22,1.68-1.73,4.81-2.46,7.1-2.63,5.2-.39,4.36,5.59,5.37,9.11,2.24,8,6.65,15.1,14.71,18.17,5.98,2.29,12.13,2.07,17.33-1.9,7.77-5.93,6.65-22.37-4.75-22.98-1.51,.11-3.35,.62-4.42,1.73-.73,.73-.06,2.01,.56,2.57,4.03,3.75,1.68,9.84-3.58,10.85-2.07,.39-4.14-.11-5.87-1.29-5.76-4.03-5.42-13.53-1.62-18.79,2.57-3.52,6.43-5.87,10.74-6.54,12.97-2.01,24.21,6.71,26.11,19.57,.56,3.52,.28,7.16-.78,10.57,3.69,1.45,6.77,2.91,9.84,5.54V55.64c-5.65-.17-11.29-.06-16.94-.06-15.94-.06-31.87,.06-47.86,0-2.74,0-5.31,.06-8.11,.06-5.14-.06-5.48-7.32-2.68-10.18,.67-.73,2.07-1.17,3.08-1.17,3.75,.11,7.55,.11,11.29,.11H348.7c-1.51-6.88-4.53-12.64-10.79-16.77-5.54-3.69-17.28-5.7-22.31,.22-.34,.45-.39,.84-.34,1.4,1.29,2.18,6.09,.78,7.6,3.75,1.29,1.96,.34,5.7-1.73,6.88-2.52,1.4-6.49,1.17-9.28,.45-7.94-2.4-10.96-9.67-7.83-17.05Z"/>
    <path class="cls-4" d="M304.02,23.26c6.26-13.53,28.96-13.64,39.7-6.26,1.12,.78,2.52,1.34,3.47,2.4l-.34,.22c-.62-.45-2.68-1.96-3.24-2.07-.28,.17-.62,.45-1.06,.73-1.4,.06-4.25,.45-5.48,.34-1.17-.06-3.52-2.52-4.64-2.4-3.3,.34-7.1,2.63-10.34,3.63-2.8,.89-5.37,.84-8.16,.84-2.35,0-3.19-2.85-4.86-2.8-1.85,1.4-2.52,2.4-3.63,4.42l.22-.17c-.39,.84-.22,.78-.89,1.17-.28-.06-.5-.06-.73-.06Z"/>
    <path class="cls-1" d="M198.73,70.34l.22,.17c.22,1.17,.11,6.21,.11,7.6,0,5.31,0,10.62-.06,15.94-5.09-4.08-8.22-6.21-13.98-9.11-3.58-1.85-6.26-2.8-10.06-4.14,8.33-4.47,14.59-7.77,23.76-10.46Z"/>
    <path class="cls-1" d="M87.02,136.1c1.96-.11,4.75-.06,6.77-.06,0,2.07,.17,6.99-.11,8.89-.56-.56-1.4-1.17-2.01-1.68,.34-1.12,.28-2.35-.11-3.47-1.06-2.74-2.52-2.4-4.42-3.24l-.11-.45Z"/>
    <path class="cls-1" d="M125.32,139.51l.39,.11c.39,.73,.22,4.42,.22,5.54-1.01-.78-1.73-1.29-2.8-1.96-.84-.45-2.01-1.01-2.96-1.4,1.79-.89,3.3-1.57,5.14-2.29Z"/>
    <path class="cls-5" d="M376.1,0c.56,0,1.4,.17,1.62,.73,1.45,3.47,1.73,6.77,4.03,10.01,1.85,2.68,4.53,3.52,7.49,4.59,1.4,.5,4.86,1.06,5.14,2.74-1.57,2.07-8,2.01-11.63,5.65-3.91,3.86-3.69,10.06-5.42,11.91-.62,0-.73,0-1.29-.22-1.12-.89-1.51-3.8-2.01-5.26-1.57-5.31-4.14-8.16-9.56-9.73-1.51-.45-5.03-1.12-5.54-2.91,1.12-1.57,8.22-2.18,11.57-5.48,4.08-4.03,3.69-9.95,5.59-12.02Z"/>
    <path class="cls-1" d="M233.85,136.1c1.57-.06,3.24-.06,4.81-.06-.06,.95,.39,2.91-.5,3.24l-.89-.56c-1.01-.22-1.45,0-2.4,.34-.67-.95-1.4-2.01-2.35-2.74,.28-.28,.84-.17,1.34-.22Z"/>
    <path class="cls-1" d="M208.69,139.56l.22,.17c.22,.78,.11,4.36,.11,5.37-1.01-.89-1.62-1.29-2.8-2.01-.67-.39-1.79-.84-2.57-1.17,1.9-1.12,3.13-1.68,5.03-2.35Z"/>
    <path class="cls-5" d="M24.17,140.4c8.89-.22,17.89,.06,26.84-.06,3.47-.06,8.39-.06,11.97,.11,.39,0,.62,.5,.78,.78,0,.73-.06,.89-.5,1.51h-27.45c-3.52,0-7.05,.06-10.57,0-.95,0-1.23-.06-1.68-.89,.17-1.01,0-.67,.62-1.45Z"/>
    <path class="cls-5" d="M301.56,140.4c7.66-.34,16.1,.11,23.93-.06,4.25-.11,10.46-.06,14.82,.11,.39,0,.62,.45,.78,.78,.06,.73-.06,.84-.39,1.45h-27.34c-3.47,0-8,.11-11.46-.11-.39,0-.56-.39-.73-.67-.11-.73,0-.84,.39-1.51Z"/>
    <g class="cls-2">
      <path class="cls-3" d="M108.62,149.03v-11.97c0-2.14-.81-2.68-2.35-2.68h-2.22v12.4l1.18,.72-1.99,1.91-6.17-3.89c-1.15,1.06-2.77,1.68-4.75,1.68-5.2,0-8.25-4.18-9.64-9.93l2.69-1.24c1.02,4.85,3.21,8.54,6.95,8.54,2.4,0,3.74-1.57,3.74-3.74,0-1.65-.84-2.66-2.06-2.66-.94,0-1.52,.57-1.52,1.42,0,.62,.34,1.16,1.04,1.47l-1.99,1.5c-1.33-.52-2.06-1.83-2.06-3.2,0-2.12,1.72-3.87,4.31-3.87,3.06,0,5.17,2.29,5.17,5.36,0,.9-.16,1.75-.44,2.5l2.77,1.78,.08-.03c-.18-1.06-.26-2.94-.26-4.44v-6.29h-19.51v-2.37h25.39c1.25,0,1.83,.57,2.12,.9h.16c-.26-.67-.52-1.75-.52-3.07v-.44h2.87v2.6h2.82v2.37h-2.82v14.65h-2.98Z"/>
      <path class="cls-3" d="M120.19,149.62c-3.03-1.03-5.04-3.89-5.04-8.1,0-2.71,.81-5.26,1.83-7.14h-3.6v-2.37h8.73v2.37h-1.93c-1.12,1.83-2.06,4.36-2.06,7.17s1.18,4.77,3.47,5.72l-1.38,2.35Z"/>
      <path class="cls-3" d="M133.2,149.42l-10.55-6.34v-2.42c1.28-1.32,4.73-3.92,8.36-4.95v-1.32h-9.95v-2.37h15.73v2.37h-2.82v12.35l1.2,.72-1.96,1.96Zm-2.01-4.28h.1c-.21-1.06-.29-2.86-.29-4.46v-2.17c-2.14,.8-4.49,2.42-5.33,3.3l5.51,3.33Z"/>
      <path class="cls-3" d="M145.69,149.03v-4.44c0-2.17,.42-3.84,.84-4.92-1.78,1.13-3.89,3.27-5.28,5.39l-2.87-1.08v-9.59h-2.64v-2.37h15.94v2.37h-10.29v6.27c1.23-1.5,3.71-3.46,5.96-4.31l2.38,1.37c-.73,1.99-1.02,4.62-1.02,6.88v4.44h-3Z"/>
      <path class="cls-3" d="M163.07,149.03v-.31c0-3.82-2.27-8.72-5.69-8.72-1.36,0-2.14,.67-2.14,1.83,0,.72,.34,1.31,.86,1.7l-2.69,1.11c-.71-.64-1.2-1.57-1.2-2.84,0-2.84,2.04-4.51,5.02-4.51,2.77,0,4.81,1.55,5.98,3.61h.1c-.08-.67-.23-2.11-.23-4.2v-2.32h-12.41v-2.37h18.21v2.37h-2.79v14.65h-3Z"/>
      <path class="cls-3" d="M182.03,149.62c-3.03-1.03-5.04-3.89-5.04-8.1,0-2.71,.81-5.26,1.83-7.14h-3.6v-2.37h8.73v2.37h-1.93c-1.12,1.83-2.06,4.36-2.06,7.17s1.18,4.77,3.47,5.72l-1.38,2.35Z"/>
      <path class="cls-3" d="M182.9,134.38v-2.37h14.16v2.37h-14.16Zm10.97,16.12c-5.83-3.48-6.48-4-8.86-4.2v-2.4h1.75c3.53,0,5.28-1.32,5.28-3.4,0-1.39-.86-2.37-2.27-2.37-1.04,0-1.78,.62-1.78,1.57,0,.59,.34,1.13,1.04,1.44l-2.01,1.5c-1.33-.57-2.01-1.8-2.01-3.17,0-2.19,1.8-3.97,4.75-3.97,3.11,0,5.17,2.11,5.17,5.05s-2.09,4.62-4.86,4.98v.1c.94,.23,1.91,.62,3.61,1.6l2.19,1.29-2.01,1.99Z"/>
      <path class="cls-3" d="M198.83,149.03v-11.97c0-2.14-.81-2.68-2.35-2.68h-.47v-2.37h1.18c1.25,0,1.83,.57,2.12,.9h.16c-.26-.67-.52-1.75-.52-3.07v-.44h2.87v2.6h2.82v2.37h-2.82v14.65h-2.98Z"/>
      <path class="cls-3" d="M214.9,149.31l-9.72-6.91v-2.55c2.12-1.65,4.7-3.02,7.65-3.46v-2.01h-9.25v-2.37h19.85v2.37h-7.71v1.86c4.05,.18,6.11,2.71,6.11,5.34,0,2.06-1.12,3.74-2.87,4.62l-1.88-2.11c1.1-.39,1.99-1.37,1.99-2.58,0-1.44-1.18-2.58-3.34-2.68v7.89l1.28,.88-2.12,1.73Zm-1.96-4.51h.11c-.16-1.5-.21-3.3-.21-4.77v-.98c-1.86,.36-3.5,1.24-4.81,2.17l4.91,3.58Z"/>
      <path class="cls-3" d="M242.86,149.03v-6.63c0-.72-.39-1.16-1.1-1.16-1.02,0-1.78,1.21-2.85,2.37-1.15,1.31-2.59,2.24-4.13,2.24-2.51,0-3.94-1.55-4.52-2.99l2.27-1.39c.37,.85,.94,1.78,2.25,1.78s1.91-.98,1.91-2.17c0-1.88-1.02-3.12-2.43-4.59l-1.23-1.29v-.83h-3.24v-2.37h18.86v2.37h-2.77v14.65h-3.03Zm-3.79-9.08c.6-.64,1.49-1.55,2.61-1.55,.58,0,.92,.13,1.25,.33-.05-.93-.08-2.37-.08-2.66v-1.7h-6.69v.1l.97,1.11c.97,1.19,1.65,2.19,1.83,3.4,.05,.31,.1,.67,.1,.95Z"/>
      <path class="cls-3" d="M247.64,134.38v-2.37h14.16v2.37h-14.16Zm10.97,16.12c-5.83-3.48-6.48-4-8.86-4.2v-2.4h1.75c3.53,0,5.28-1.32,5.28-3.4,0-1.39-.86-2.37-2.27-2.37-1.04,0-1.78,.62-1.78,1.57,0,.59,.34,1.13,1.04,1.44l-2.01,1.5c-1.33-.57-2.01-1.8-2.01-3.17,0-2.19,1.8-3.97,4.75-3.97,3.11,0,5.17,2.11,5.17,5.05s-2.09,4.62-4.86,4.98v.1c.94,.23,1.91,.62,3.61,1.6l2.19,1.29-2.01,1.99Z"/>
      <path class="cls-3" d="M278.05,149.29v-3.89c0-2.19,.6-4.25,1.28-5.26-3.4-.28-5.43-2.35-6.06-4.23-1.65,1.13-2.53,2.19-2.53,3.12,0,.52,.31,.8,1.17,.88l2.95,.23c.84,.8,1.49,1.96,1.49,3.33,0,2.45-1.99,4.9-5.75,4.9-4.88,0-8.28-4.23-8.8-9.21l2.74-.95c.31,4.13,2.61,7.48,6.03,7.48,1.88,0,2.77-1.03,2.77-2.11,0-.54-.16-.85-.31-1.06l-2.22-.18c-2.14-.21-3.24-1.19-3.24-2.84,0-2.09,1.72-3.84,3.58-5.11h-10.4v-2.37h23.38v2.37h-8.67c.42,1.55,1.83,3.25,5.09,3.25h.73l1.12,2.17c-.86,1.5-1.41,3.53-1.41,5.8v3.69h-2.95Z"/>
    </g>
  </g>
</svg>